<svg width="31" height="31" viewBox="0 0 31 31" fill="none" xmlns="http://www.w3.org/2000/svg">
<path d="M11.185 30.1H19.915C27.19 30.1 30.1 27.19 30.1 19.915V11.185C30.1 3.91 27.19 1 19.915 1H11.185C3.91 1 1 3.91 1 11.185V19.915C1 27.19 3.91 30.1 11.185 30.1Z" stroke="" stroke-width="1.5" stroke-linecap="round" stroke-linejoin="round"/>
<path d="M20.6425 25.0073C22.243 25.0073 23.5525 23.6978 23.5525 22.0973V9.00229C23.5525 7.40179 22.243 6.09229 20.6425 6.09229C19.042 6.09229 17.7325 7.40179 17.7325 9.00229V22.0973C17.7325 23.6978 19.0274 25.0073 20.6425 25.0073Z" stroke="" stroke-width="1.5" stroke-linecap="round" stroke-linejoin="round"/>
<path d="M10.4575 25.0077C12.058 25.0077 13.3675 23.6982 13.3675 22.0977V17.0052C13.3675 15.4047 12.058 14.0952 10.4575 14.0952C8.85699 14.0952 7.54749 15.4047 7.54749 17.0052V22.0977C7.54749 23.6982 8.84244 25.0077 10.4575 25.0077Z" stroke="" stroke-width="1.5" stroke-linecap="round" stroke-linejoin="round"/>
</svg>
