<svg width="22" height="31" viewBox="0 0 22 31" fill="none" xmlns="http://www.w3.org/2000/svg">
<path d="M11.011 14.0296C10.8641 14.0149 10.6878 14.0149 10.5262 14.0296C7.03011 13.9121 4.25378 11.0477 4.25378 7.52216C4.25378 3.92322 7.16232 1 10.7759 1C14.3749 1 17.2981 3.92322 17.2981 7.52216C17.2834 11.0477 14.5071 13.9121 11.011 14.0296Z" stroke="" stroke-width="1.5" stroke-linecap="round" stroke-linejoin="round"/>
<path d="M3.66615 19.4497C0.111282 21.8294 0.111282 25.7075 3.66615 28.0725C7.70578 30.7754 14.3308 30.7754 18.3704 28.0725C21.9253 25.6928 21.9253 21.8148 18.3704 19.4497C14.3455 16.7615 7.72047 16.7615 3.66615 19.4497Z" stroke="" stroke-width="1.5" stroke-linecap="round" stroke-linejoin="round"/>
</svg>
