<svg width="31" height="31" viewBox="0 0 31 31" fill="none" xmlns="http://www.w3.org/2000/svg">
<path d="M23.6625 17.7772C23.05 18.3751 22.7 19.2355 22.7875 20.1543C22.9187 21.7293 24.3625 22.8813 25.9375 22.8813H28.7083V24.6168C28.7083 27.6355 26.2437 30.1001 23.225 30.1001H6.48333C3.46458 30.1001 1 27.6355 1 24.6168V14.8022C1 11.7834 3.46458 9.31885 6.48333 9.31885H23.225C26.2437 9.31885 28.7083 11.7834 28.7083 14.8022V16.9022H25.7625C24.9458 16.9022 24.2021 17.223 23.6625 17.7772Z" stroke="#5A5A5A" stroke-width="1.5" stroke-linecap="round" stroke-linejoin="round"/>
<path d="M1 16.1147V9.45024C1 7.71482 2.06458 6.16892 3.68333 5.55642L15.2625 1.18143C17.0708 0.496009 19.0104 1.83772 19.0104 3.7773V9.31895" stroke="#5A5A5A" stroke-width="1.5" stroke-linecap="round" stroke-linejoin="round"/>
<path d="M30.2524 18.3898V21.394C30.2524 22.1961 29.6108 22.8523 28.7941 22.8815H25.9358C24.3608 22.8815 22.917 21.7294 22.7858 20.1544C22.6983 19.2356 23.0483 18.3752 23.6608 17.7773C24.2004 17.2231 24.9441 16.9023 25.7608 16.9023H28.7941C29.6108 16.9315 30.2524 17.5877 30.2524 18.3898Z" stroke="#5A5A5A" stroke-width="1.5" stroke-linecap="round" stroke-linejoin="round"/>
<path d="M7.5625 15.5166H17.7708" stroke="#5A5A5A" stroke-width="1.5" stroke-linecap="round" stroke-linejoin="round"/>
</svg>
