<svg width="84" height="26" viewBox="0 0 84 26" fill="none" xmlns="http://www.w3.org/2000/svg">
<path d="M15.1717 13.2593C15.4456 13.3514 15.7643 13.4883 16.1279 13.6701C16.7654 14.0361 17.3108 14.5366 17.7688 15.1741C18.3165 16.0854 18.588 17.1786 18.588 18.4535C18.588 22.8284 15.9437 25.0147 10.6599 25.0147H0.410812C0.136937 25.0147 0 24.8777 0 24.6039V3.55329C0 3.27941 0.136937 3.14248 0.410812 3.14248H11.21C13.1247 3.14248 14.6712 3.66898 15.8564 4.71489C17.0392 5.76317 17.6342 7.15379 17.6342 8.8844C17.6342 9.88782 17.4052 10.7756 16.9519 11.55C16.4939 12.3267 15.9012 12.8957 15.1717 13.2593ZM10.5253 21.8698C12.0741 21.8698 13.2121 21.6196 13.9416 21.119C14.6688 20.6185 15.0348 19.752 15.0348 18.522C15.0348 17.2919 14.6688 16.4278 13.9416 15.9249C13.2121 15.4243 12.0717 15.1741 10.5253 15.1741H4.10103C3.73508 15.1741 3.55329 15.311 3.55329 15.5849V21.4637C3.55329 21.7376 3.73508 21.8746 4.10103 21.8746H10.5253V21.8698ZM4.10103 6.28731C3.82716 6.28731 3.69022 6.42425 3.69022 6.69812V11.6184C3.69022 11.8923 3.82716 12.0292 4.10103 12.0292H10.3883C12.7564 12.0292 13.9416 11.073 13.9416 9.15827C13.9416 7.24351 12.7564 6.28731 10.3883 6.28731H4.10103ZM37.3178 13.2593C37.5916 13.3514 37.8655 13.4883 38.137 13.6701C38.8642 14.0361 39.412 14.5366 39.7779 15.1741C40.4154 16.0854 40.7341 17.1786 40.7341 18.4535C40.7341 22.8284 38.0898 25.0147 32.8059 25.0147H22.5545C22.2806 25.0147 22.1437 24.8777 22.1437 24.6039V3.55329C22.1437 3.27941 22.2806 3.14248 22.5545 3.14248H33.3537C35.1763 3.14248 36.7015 3.66898 37.934 4.71489C39.1641 5.76317 39.7803 7.15379 39.7803 8.8844C39.7803 9.88782 39.5513 10.7756 39.0979 11.55C38.6375 12.3267 38.0449 12.8957 37.3178 13.2593ZM26.1078 6.28731C25.8339 6.28731 25.697 6.42425 25.697 6.69812V11.6184C25.697 11.8923 25.8339 12.0292 26.1078 12.0292H32.532C34.9001 12.0292 36.0853 11.073 36.0853 9.15827C36.0853 7.24351 34.9001 6.28731 32.532 6.28731H26.1078ZM32.669 21.8698C34.2178 21.8698 35.3558 21.6196 36.0853 21.119C36.8125 20.6185 37.1785 19.752 37.1785 18.522C37.1785 17.2919 36.8125 16.4278 36.0853 15.9249C35.3558 15.4243 34.2154 15.1741 32.669 15.1741H26.1078C25.8339 15.1741 25.697 15.311 25.697 15.5849V21.4637C25.697 21.7376 25.8339 21.8746 26.1078 21.8746H32.669V21.8698ZM60.2807 3.41635C60.3704 3.23455 60.4625 3.14248 60.5546 3.14248H64.1079C64.1976 3.14248 64.2897 3.18969 64.3818 3.27941C64.4715 3.37149 64.4715 3.46357 64.3818 3.55329L53.0372 24.8777C52.9451 24.9698 52.8318 25.0147 52.6949 25.0147C52.5579 25.0147 52.4422 24.9698 52.3525 24.8777L41.008 3.55329C40.9159 3.46357 40.8923 3.37149 40.9395 3.27941C40.9844 3.18969 41.0977 3.14248 41.2819 3.14248H44.6982C44.88 3.14248 45.0169 3.23455 45.109 3.41635L52.3525 17.0865C52.3525 17.1786 52.4422 17.2234 52.6264 17.2234C52.8082 17.2234 52.9451 17.1786 53.0372 17.0865L60.2807 3.41635ZM64.3818 21.5983C64.2897 21.7825 64.1527 21.8722 63.9709 21.8722H60.4177C60.3256 21.8722 60.2571 21.8273 60.2123 21.7353C60.165 21.6455 60.1438 21.5535 60.1438 21.4614L71.4907 0.136937C71.5804 0.0472198 71.7173 0 71.9015 0C72.0833 0 72.2202 0.0472198 72.3123 0.136937L83.6545 21.4614C83.6545 21.5535 83.6309 21.6455 83.586 21.7353C83.5388 21.8273 83.4703 21.8722 83.3806 21.8722H79.8273C79.6432 21.8722 79.5062 21.7825 79.4165 21.5983L72.3076 7.9282C72.2155 7.7464 72.0786 7.65432 71.8968 7.65432C71.7126 7.65432 71.5757 7.7464 71.486 7.9282L64.3818 21.5983Z" fill="#004580"/>
</svg>
