<svg width="88" height="26" viewBox="0 0 88 26" fill="none" xmlns="http://www.w3.org/2000/svg">
<path d="M34.5617 22.9507C36.8518 22.9507 38.5764 22.3782 39.6935 21.252C40.8405 20.0905 41.0803 18.5985 41.0803 17.5486C41.0803 15.2506 40.1491 13.6532 38.3066 12.8059L38.2267 12.7707L38.3046 12.7294C39.1359 12.2809 40.235 11.3696 40.235 8.64583C40.235 7.1517 39.6855 5.80429 38.6843 4.85367C37.5892 3.80798 35.9925 3.25827 34.0661 3.25827L24.0903 3.25V22.9465L34.5617 22.9527V22.9507ZM27.7133 10.9852V6.87271H33.7564C34.8195 6.87271 36.602 6.87271 36.602 9.03848C36.602 9.83205 36.2683 10.3983 35.6088 10.7124C35.0193 10.9976 34.2759 11.0307 33.7704 11.0307H27.7133V10.9852ZM27.7133 14.6451V14.6038H34.3159C34.9174 14.6038 35.7847 14.7009 36.4821 15.17C37.1316 15.6102 37.4613 16.257 37.4613 17.0961C37.4613 17.7677 37.2815 18.2905 36.9357 18.6501C36.2883 19.3197 35.1692 19.3176 34.3539 19.3176H27.6934V19.2742L27.7153 14.6451H27.7133Z" fill="#161519"/>
<path d="M3.7 3.25391H0V22.4358H3.7V3.25391Z" fill="#161519"/>
<path d="M5.91321 12.9751C5.91321 14.8947 6.22728 16.4791 6.87757 17.8158C7.41512 18.9318 8.17614 19.8687 9.2754 20.7743C10.9867 22.1839 13.3966 22.898 16.4346 22.898H21.6732V19.1504H16.7266C13.9764 19.1504 11.9772 18.4446 10.7934 17.0559C9.95387 16.0648 9.52102 14.7386 9.51095 13.1C9.49686 11.3449 9.97602 9.94786 10.9303 8.95265C12.1242 7.70553 14.0751 7.07468 16.7266 7.07468H21.6732V3.36035H16.6178C14.9146 3.36035 13.4872 3.53732 12.251 3.89335C11.0189 4.25354 10.0022 4.78862 9.15258 5.52982C7.94059 6.58332 5.91321 8.95266 5.91321 12.9751Z" fill="#161519"/>
<path d="M42.1969 13.5775C42.1969 15.6052 42.54 17.3948 43.2156 18.8891C43.8038 20.185 44.6584 21.3002 45.756 22.2105C47.4546 23.61 49.8671 24.2602 53.3367 24.2602H59.1848V20.2952H53.6436C50.7366 20.2952 48.6225 19.5172 47.3608 17.9855C46.4742 16.9055 46.0203 15.4663 46.0032 13.7098C45.9862 11.7989 46.5126 10.2738 47.5611 9.18282C48.8335 7.85603 50.8794 7.18161 53.6436 7.18161H59.1848V3.25635H53.5307C51.7298 3.25635 50.2166 3.44148 48.9102 3.82056C47.6016 4.19744 46.5254 4.76386 45.6281 5.55068C44.5966 6.44549 42.1948 9.02854 42.1948 13.5797" fill="#161519"/>
<path fill-rule="evenodd" clip-rule="evenodd" d="M74.9676 7.99451V5.99642H68.6913V11.9918H72.5367V13.9899H68.6913V19.9841H74.9676V17.9871H70.6224V15.9901H74.4835V9.99152H70.6224V7.99559H74.9676V7.99451ZM62.8541 12.9995C62.8541 5.81694 68.479 0 75.4265 0C82.374 0 88 5.81694 88 12.9995C88 20.182 82.3709 26 75.4265 26C68.4822 26 62.8541 20.1809 62.8541 12.9995ZM64.8009 12.9995C64.8009 6.93492 69.558 2.01106 75.4265 2.01106C81.2951 2.01106 86.0501 6.93492 86.0501 12.9995C86.0501 19.064 81.2919 23.9868 75.4265 23.9868C69.5612 23.9868 64.8009 19.0662 64.8009 12.9995ZM75.9399 17.9904V19.9874H82.2057V13.9963H78.353V11.9993H82.2057V5.99859H75.9399V7.99667H80.2725V9.99908H76.4114V15.9923H80.2725V17.9893H75.9399V17.9904Z" fill="#B2292E"/>
<path d="M74.9676 7.99451V5.99642H68.6913V11.9918H72.5367V13.9899H68.6913V19.9841H74.9676V17.9871H70.6224V15.9901H74.4835V9.99152H70.6224V7.99559H74.9676V7.99451ZM62.8541 12.9995C62.8541 5.81694 68.479 0 75.4265 0C82.374 0 88 5.81694 88 12.9995C88 20.182 82.3709 26 75.4265 26C68.4822 26 62.8541 20.1809 62.8541 12.9995ZM64.8009 12.9995C64.8009 6.93492 69.558 2.01106 75.4265 2.01106C81.2951 2.01106 86.0501 6.93492 86.0501 12.9995C86.0501 19.064 81.2919 23.9868 75.4265 23.9868C69.5612 23.9868 64.8009 19.0662 64.8009 12.9995ZM75.9399 17.9904V19.9874H82.2057V13.9963H78.353V11.9993H82.2057V5.99859H75.9399V7.99667H80.2725V9.99908H76.4114V15.9923H80.2725V17.9893H75.9399V17.9904Z" stroke="#B2292E" stroke-width="0.0036"/>
</svg>
