<svg width="90" height="33" viewBox="0 0 90 33" fill="none" xmlns="http://www.w3.org/2000/svg">
<path d="M30.4216 25.1812C32.2975 25.1812 33.7102 24.7278 34.6253 23.8357C35.5649 22.9157 35.7613 21.7338 35.7613 20.9023C35.7613 19.082 34.9985 17.8166 33.4892 17.1454L33.4237 17.1176L33.4876 17.0849C34.1686 16.7297 35.0689 16.0078 35.0689 13.8503C35.0689 12.6667 34.6187 11.5994 33.7986 10.8464C32.9016 10.0182 31.5936 9.58272 30.0156 9.58272L21.8439 9.57617V25.178L30.4216 25.1829V25.1812ZM24.8117 15.7033V12.4458H29.7619C30.6327 12.4458 32.0929 12.4458 32.0929 14.1613C32.0929 14.7899 31.8195 15.2384 31.2793 15.4872C30.7964 15.7131 30.1875 15.7393 29.7733 15.7393H24.8117V15.7033ZM24.8117 18.6023V18.5696H30.2202C30.7129 18.5696 31.4234 18.6465 31.9947 19.0181C32.5267 19.3668 32.7968 19.8792 32.7968 20.5438C32.7968 21.0758 32.6495 21.4899 32.3663 21.7747C31.8359 22.3051 30.9192 22.3035 30.2513 22.3035H24.7954V22.2691L24.8134 18.6023H24.8117Z" fill="#161519"/>
<path d="M3.11208 9.57959H0V25.1809H3.11208V9.57959Z" fill="#161519"/>
<path d="M6.01874 17.2496C6.01874 18.7631 6.27482 20.0123 6.80504 21.0662C7.24333 21.946 7.86383 22.6847 8.76011 23.3988C10.1554 24.5101 12.1203 25.0732 14.5974 25.0732H18.8687V22.1184H14.8355C12.5931 22.1184 10.9631 21.5619 9.99783 20.467C9.31331 19.6856 8.96038 18.64 8.95217 17.3481C8.94068 15.9643 9.33137 14.8628 10.1095 14.0781C11.0829 13.0948 12.6735 12.5975 14.8355 12.5975H18.8687V9.66895H14.7468C13.3581 9.66895 12.1942 9.80848 11.1863 10.0892C10.1817 10.3732 9.35271 10.795 8.65998 11.3794C7.67177 12.2101 6.01874 14.0781 6.01874 17.2496Z" fill="#161519"/>
<path d="M37.6074 17.248C37.6074 18.7541 37.871 20.0834 38.3899 21.1933C38.8418 22.1559 39.4982 22.9843 40.3413 23.6604C41.6461 24.6999 43.4992 25.1829 46.1644 25.1829H50.6565V22.2378H46.4001C44.1672 22.2378 42.5432 21.6599 41.574 20.5221C40.893 19.7199 40.5443 18.6509 40.5312 17.3462C40.5181 15.9268 40.9225 14.794 41.7279 13.9836C42.7053 12.9981 44.2769 12.4972 46.4001 12.4972H50.6565V9.58154H46.3134C44.93 9.58154 43.7677 9.71906 42.7642 10.0006C41.759 10.2806 40.9323 10.7013 40.2431 11.2857C39.4508 11.9504 37.6058 13.869 37.6058 17.2496" fill="#161519"/>
<path fill-rule="evenodd" clip-rule="evenodd" d="M73.0983 9.9817V7.48695H64.9944V14.9726H69.9596V17.4673H64.9944V24.9516H73.0983V22.4582H67.4878V19.9648H72.4733V12.4751H67.4878V9.98305H73.0983V9.9817ZM57.4575 16.2307C57.4575 7.26285 64.7204 0 73.6909 0C82.6615 0 89.9257 7.26285 89.9257 16.2307C89.9257 25.1986 82.6575 32.4628 73.6909 32.4628C64.7244 32.4628 57.4575 25.1972 57.4575 16.2307ZM59.9712 16.2307C59.9712 8.65873 66.1135 2.51095 73.6909 2.51095C81.2684 2.51095 87.408 8.65873 87.408 16.2307C87.408 23.8027 81.2643 29.9492 73.6909 29.9492C66.1176 29.9492 59.9712 23.8054 59.9712 16.2307ZM74.3538 22.4622V24.9556H82.4442V17.4754H77.4695V14.982H82.4442V7.48965H74.3538V9.9844H79.9481V12.4846H74.9626V19.9675H79.9481V22.4609H74.3538V22.4622Z" fill="#B2292E"/>
<path d="M73.0983 9.9817V7.48695H64.9944V14.9726H69.9596V17.4673H64.9944V24.9516H73.0983V22.4582H67.4878V19.9648H72.4733V12.4751H67.4878V9.98305H73.0983V9.9817ZM57.4575 16.2307C57.4575 7.26285 64.7204 0 73.6909 0C82.6615 0 89.9257 7.26285 89.9257 16.2307C89.9257 25.1986 82.6575 32.4628 73.6909 32.4628C64.7244 32.4628 57.4575 25.1972 57.4575 16.2307ZM59.9712 16.2307C59.9712 8.65873 66.1135 2.51095 73.6909 2.51095C81.2684 2.51095 87.408 8.65873 87.408 16.2307C87.408 23.8027 81.2643 29.9492 73.6909 29.9492C66.1176 29.9492 59.9712 23.8054 59.9712 16.2307ZM74.3538 22.4622V24.9556H82.4442V17.4754H77.4695V14.982H82.4442V7.48965H74.3538V9.9844H79.9481V12.4846H74.9626V19.9675H79.9481V22.4609H74.3538V22.4622Z" stroke="#B2292E" stroke-width="0.0036"/>
</svg>
