<svg width="47" height="47" viewBox="0 0 47 47" fill="none" xmlns="http://www.w3.org/2000/svg">
<path d="M29.2446 8.1665H16.7955V30.538H29.2446V8.1665Z" fill="#FF5F00"/>
<path d="M17.5858 19.3531C17.5838 17.1986 18.0721 15.0718 19.0135 13.1339C19.955 11.1959 21.325 9.49756 23.0199 8.16736C20.921 6.5176 18.4004 5.49164 15.746 5.20675C13.0916 4.92185 10.4106 5.38951 8.00943 6.55628C5.60827 7.72305 3.5838 9.54184 2.16745 11.8048C0.751103 14.0677 0 16.6835 0 19.3531C0 22.0228 0.751103 24.6386 2.16745 26.9015C3.5838 29.1644 5.60827 30.9832 8.00943 32.15C10.4106 33.3168 13.0916 33.7844 15.746 33.4995C18.4004 33.2146 20.921 32.1887 23.0199 30.5389C21.325 29.2087 19.955 27.5103 19.0135 25.5724C18.0721 23.6344 17.5838 21.5077 17.5858 19.3531V19.3531Z" fill="#EB001B"/>
<path d="M46.0393 19.3531C46.0394 22.0227 45.2884 24.6385 43.8721 26.9014C42.4558 29.1644 40.4314 30.9832 38.0303 32.15C35.6292 33.3167 32.9482 33.7844 30.2939 33.4995C27.6395 33.2146 25.1189 32.1887 23.0201 30.5389C24.7135 29.2074 26.0824 27.5087 27.0237 25.5711C27.9651 23.6334 28.4542 21.5073 28.4542 19.3531C28.4542 17.1989 27.9651 15.0729 27.0237 13.1352C26.0824 11.1976 24.7135 9.49891 23.0201 8.16736C25.1189 6.5176 27.6395 5.49164 30.2939 5.20674C32.9482 4.92185 35.6292 5.38952 38.0303 6.5563C40.4314 7.72308 42.4558 9.54188 43.8721 11.8048C45.2884 14.0678 46.0394 16.6835 46.0393 19.3531V19.3531Z" fill="#F79E1B"/>
<path d="M44.6819 28.1689V27.7109H44.8666V27.6176H44.3962V27.7109H44.581V28.1689H44.6819ZM45.595 28.1689V27.6167H45.4509L45.285 27.9965L45.1192 27.6167H44.9749V28.1689H45.0767V27.7524L45.2322 28.1115H45.3378L45.4933 27.7515V28.1689H45.595Z" fill="#F79E1B"/>
</svg>
