<svg width="47" height="47" viewBox="0 0 52 52" fill="none" xmlns="http://www.w3.org/2000/svg">
<path d="M25.3285 17.5765L21.9109 33.5543H17.7771L21.1951 17.5765H25.3285ZM42.7189 27.8935L44.8946 21.8935L46.1466 27.8935H42.7189ZM47.3325 33.5543H51.1547L47.8155 17.5765H44.2897C43.4952 17.5765 42.8253 18.0372 42.5288 18.7476L36.3265 33.5543H40.6677L41.5294 31.1681H46.8319L47.3325 33.5543ZM36.5418 28.3381C36.5598 24.1213 30.7125 23.8877 30.7517 22.0035C30.7643 21.431 31.3105 20.8212 32.5043 20.6652C33.0962 20.589 34.7295 20.5272 36.581 21.3804L37.3051 17.9908C36.3107 17.6311 35.031 17.2847 33.4387 17.2847C29.3523 17.2847 26.4777 19.4552 26.4547 22.5659C26.4285 24.8662 28.5082 26.1488 30.0718 26.915C31.6839 27.698 32.224 28.2001 32.2161 28.8998C32.205 29.9717 30.9307 30.4465 29.744 30.4644C27.6647 30.4968 26.4594 29.9024 25.4988 29.4546L24.7485 32.9574C25.7159 33.4001 27.4983 33.7853 29.3441 33.8051C33.6884 33.8051 36.5289 31.66 36.5418 28.3381ZM19.422 17.5765L12.7244 33.5543H8.35563L5.05952 20.8029C4.85971 20.0187 4.68542 19.7305 4.07773 19.3992C3.08372 18.8594 1.44286 18.3545 0 18.0404L0.0977488 17.5765H7.13126C8.02716 17.5765 8.83322 18.1727 9.03842 19.2048L10.7796 28.4513L15.0794 17.5765H19.422Z" fill="#1434CB"/>
</svg>
