<svg width="" height="" viewBox="0 0 22 20" fill="none" xmlns="http://www.w3.org/2000/svg">
<path d="M6.19666 18.3332H15.8033C18.3333 18.3332 19.3417 16.9248 19.4608 15.2082L19.9375 8.32484C20.0658 6.52484 18.4892 4.99984 16.5 4.99984C15.9408 4.99984 15.4275 4.70817 15.1708 4.25817L14.5108 3.04984C14.0892 2.2915 12.9892 1.6665 12.0542 1.6665H9.95499C9.01082 1.6665 7.91082 2.2915 7.48916 3.04984L6.82916 4.25817C6.57249 4.70817 6.05916 4.99984 5.49999 4.99984C3.51082 4.99984 1.93416 6.52484 2.06249 8.32484L2.53916 15.2082C2.64916 16.9248 3.66666 18.3332 6.19666 18.3332Z" stroke="#292D32" stroke-width="1.5" stroke-linecap="round" stroke-linejoin="round"/>
<path d="M9.625 6.6665H12.375" stroke="#292D32" stroke-width="1.5" stroke-linecap="round" stroke-linejoin="round"/>
<path d="M11 15.0002C12.6408 15.0002 13.9791 13.7835 13.9791 12.2918C13.9791 10.8002 12.6408 9.5835 11 9.5835C9.35915 9.5835 8.02081 10.8002 8.02081 12.2918C8.02081 13.7835 9.35915 15.0002 11 15.0002Z" stroke="#292D32" stroke-width="1.5" stroke-linecap="round" stroke-linejoin="round"/>
</svg>
