<svg width="40" height="40" viewBox="0 0 35 35" fill="none" xmlns="http://www.w3.org/2000/svg">
<path d="M13.125 32.0834H21.875C29.1667 32.0834 32.0834 29.1667 32.0834 21.8751V13.1251C32.0834 5.83341 29.1667 2.91675 21.875 2.91675H13.125C5.83335 2.91675 2.91669 5.83341 2.91669 13.1251V21.8751C2.91669 29.1667 5.83335 32.0834 13.125 32.0834Z" stroke="#4B4B4B" stroke-width="2" stroke-linecap="round" stroke-linejoin="round"/>
<path d="M10.2083 12.0312C11.6666 13.4896 14.0437 13.4896 15.5166 12.0312" stroke="#4B4B4B" stroke-width="2" stroke-miterlimit="10" stroke-linecap="round" stroke-linejoin="round"/>
<path d="M19.4833 12.0312C20.9417 13.4896 23.3188 13.4896 24.7917 12.0312" stroke="#4B4B4B" stroke-width="2" stroke-miterlimit="10" stroke-linecap="round" stroke-linejoin="round"/>
<path d="M12.25 18.9583H22.75C23.4792 18.9583 24.0625 19.5416 24.0625 20.2708C24.0625 23.902 21.1313 26.8333 17.5 26.8333C13.8688 26.8333 10.9375 23.902 10.9375 20.2708C10.9375 19.5416 11.5208 18.9583 12.25 18.9583Z" stroke="#4B4B4B" stroke-width="2" stroke-miterlimit="10" stroke-linecap="round" stroke-linejoin="round"/>
</svg>
