<svg width="35" height="35" viewBox="0 0 35 35" fill="none" xmlns="http://www.w3.org/2000/svg">
<path d="M13.125 32.0832H21.875C29.1667 32.0832 32.0833 29.1665 32.0833 21.8748V13.1248C32.0833 5.83317 29.1667 2.9165 21.875 2.9165H13.125C5.83332 2.9165 2.91666 5.83317 2.91666 13.1248V21.8748C2.91666 29.1665 5.83332 32.0832 13.125 32.0832Z" stroke="#4B4B4B" stroke-width="2" stroke-linecap="round" stroke-linejoin="round"/>
<path d="M22.6042 14.2188C23.8123 14.2188 24.7917 13.2394 24.7917 12.0312C24.7917 10.8231 23.8123 9.84375 22.6042 9.84375C21.396 9.84375 20.4167 10.8231 20.4167 12.0312C20.4167 13.2394 21.396 14.2188 22.6042 14.2188Z" stroke="#4B4B4B" stroke-width="2" stroke-miterlimit="10" stroke-linecap="round" stroke-linejoin="round"/>
<path d="M12.3958 14.2188C13.604 14.2188 14.5833 13.2394 14.5833 12.0312C14.5833 10.8231 13.604 9.84375 12.3958 9.84375C11.1877 9.84375 10.2083 10.8231 10.2083 12.0312C10.2083 13.2394 11.1877 14.2188 12.3958 14.2188Z" stroke="#4B4B4B" stroke-width="2" stroke-miterlimit="10" stroke-linecap="round" stroke-linejoin="round"/>
<path d="M12.25 19.396H22.75C23.4792 19.396 24.0625 19.9793 24.0625 20.7085C24.0625 24.3397 21.1313 27.271 17.5 27.271C13.8688 27.271 10.9375 24.3397 10.9375 20.7085C10.9375 19.9793 11.5208 19.396 12.25 19.396Z" stroke="#4B4B4B" stroke-width="2" stroke-miterlimit="10" stroke-linecap="round" stroke-linejoin="round"/>
</svg>
