<svg width="" height="" viewBox="0 0 35 35" fill="none" xmlns="http://www.w3.org/2000/svg">
<path fill-rule="evenodd" clip-rule="evenodd" d="M4.375 10.2082V24.7915C4.375 26.4023 5.68084 27.7082 7.29167 27.7082H27.7083C29.3192 27.7082 30.625 26.4023 30.625 24.7915V10.2082C30.625 8.59734 29.3192 7.2915 27.7083 7.2915H7.29167C5.68084 7.2915 4.375 8.59734 4.375 10.2082Z" stroke="#0E2DA6" stroke-width="2" stroke-linecap="round" stroke-linejoin="round"/>
<path d="M21.875 14.5832H26.25" stroke="#0E2DA6" stroke-width="2" stroke-linecap="round"/>
<path d="M21.875 18.9582H26.25" stroke="#0E2DA6" stroke-width="2" stroke-linecap="round"/>
<path fill-rule="evenodd" clip-rule="evenodd" d="M16.0416 14.5832C16.0416 16.194 14.7358 17.4998 13.125 17.4998C11.5141 17.4998 10.2083 16.194 10.2083 14.5832C10.2083 12.9723 11.5141 11.6665 13.125 11.6665C13.8985 11.6665 14.6404 11.9738 15.1874 12.5208C15.7344 13.0678 16.0416 13.8096 16.0416 14.5832Z" stroke="#0E2DA6" stroke-width="2" stroke-linecap="round" stroke-linejoin="round"/>
<path d="M7.29165 23.3331C11.3502 18.7583 16.1175 20.1962 18.9583 23.3331" stroke="#0E2DA6" stroke-width="2" stroke-linecap="round"/>
</svg>
