<svg width="" height="" viewBox="0 0 32 29" fill="none" xmlns="http://www.w3.org/2000/svg">
<path d="M2.58337 10.8748V7.854C2.58337 4.84525 5.17962 2.4165 8.39587 2.4165H11.625" stroke="#0E2DA6" stroke-width="2" stroke-linecap="round" stroke-linejoin="round"/>
<path d="M19.375 2.4165H22.6042C25.8204 2.4165 28.4167 4.84525 28.4167 7.854V10.8748" stroke="#0E2DA6" stroke-width="2" stroke-linecap="round" stroke-linejoin="round"/>
<path d="M28.4166 19.3335V21.146C28.4166 24.1547 25.8204 26.5835 22.6041 26.5835H20.6666" stroke="#0E2DA6" stroke-width="2" stroke-linecap="round" stroke-linejoin="round"/>
<path d="M11.625 26.5833H8.39587C5.17962 26.5833 2.58337 24.1546 2.58337 21.1458V18.125" stroke="#0E2DA6" stroke-width="2" stroke-linecap="round" stroke-linejoin="round"/>
<path d="M13.5625 8.4585V10.8752C13.5625 12.0835 12.9166 12.6877 11.625 12.6877H9.04163C7.74996 12.6877 7.10413 12.0835 7.10413 10.8752V8.4585C7.10413 7.25016 7.74996 6.646 9.04163 6.646H11.625C12.9166 6.646 13.5625 7.25016 13.5625 8.4585Z" stroke="#0E2DA6" stroke-width="2" stroke-linecap="round" stroke-linejoin="round"/>
<path d="M23.8958 8.4585V10.8752C23.8958 12.0835 23.25 12.6877 21.9583 12.6877H19.375C18.0833 12.6877 17.4375 12.0835 17.4375 10.8752V8.4585C17.4375 7.25016 18.0833 6.646 19.375 6.646H21.9583C23.25 6.646 23.8958 7.25016 23.8958 8.4585Z" stroke="#0E2DA6" stroke-width="2" stroke-linecap="round" stroke-linejoin="round"/>
<path d="M13.5625 18.125V20.5417C13.5625 21.75 12.9166 22.3542 11.625 22.3542H9.04163C7.74996 22.3542 7.10413 21.75 7.10413 20.5417V18.125C7.10413 16.9167 7.74996 16.3125 9.04163 16.3125H11.625C12.9166 16.3125 13.5625 16.9167 13.5625 18.125Z" stroke="#0E2DA6" stroke-width="2" stroke-linecap="round" stroke-linejoin="round"/>
<path d="M23.8958 18.125V20.5417C23.8958 21.75 23.25 22.3542 21.9583 22.3542H19.375C18.0833 22.3542 17.4375 21.75 17.4375 20.5417V18.125C17.4375 16.9167 18.0833 16.3125 19.375 16.3125H21.9583C23.25 16.3125 23.8958 16.9167 23.8958 18.125Z" stroke="#0E2DA6" stroke-width="2" stroke-linecap="round" stroke-linejoin="round"/>
</svg>
