<svg width="" height="" viewBox="0 0 35 35" fill="none" xmlns="http://www.w3.org/2000/svg">
<path d="M6.50312 17.5017C6.50367 18.054 6.95183 18.5013 7.50412 18.5007C8.0564 18.5002 8.50367 18.052 8.50312 17.4997L6.50312 17.5017ZM9.17145 11.8293L10.0116 12.3716L10.0121 12.3708L9.17145 11.8293ZM13.6135 8.06967L13.2196 7.15052L13.2184 7.15106L13.6135 8.06967ZM19.3317 7.48634L19.535 6.50723L19.5318 6.50658L19.3317 7.48634ZM24.3979 10.282L23.678 10.976L23.6788 10.9768L24.3979 10.282ZM25.9233 14.8603C26.0759 15.3911 26.6298 15.6977 27.1606 15.5451C27.6914 15.3926 27.998 14.8386 27.8455 14.3078L25.9233 14.8603ZM25.9165 14.3325C25.7776 14.8671 26.0983 15.413 26.6328 15.5519C27.1674 15.6908 27.7133 15.3701 27.8522 14.8356L25.9165 14.3325ZM28.8876 10.8514C29.0265 10.3169 28.7058 9.77095 28.1713 9.63203C27.6368 9.49312 27.0908 9.81383 26.9519 10.3484L28.8876 10.8514ZM26.618 15.5479C27.1504 15.695 27.7011 15.3827 27.8482 14.8504C27.9953 14.3181 27.6831 13.7673 27.1507 13.6202L26.618 15.5479ZM23.2876 12.5527C22.7553 12.4056 22.2045 12.7179 22.0574 13.2502C21.9103 13.7825 22.2226 14.3333 22.7549 14.4804L23.2876 12.5527ZM28.9198 17.4997C28.9192 16.9474 28.4711 16.5002 27.9188 16.5007C27.3665 16.5013 26.9192 16.9494 26.9198 17.5017L28.9198 17.4997ZM26.2515 23.1722L25.4113 22.6299L25.4108 22.6306L26.2515 23.1722ZM21.8094 26.9318L22.2033 27.8509L22.2045 27.8504L21.8094 26.9318ZM16.0912 27.5151L15.8879 28.4942L15.8911 28.4948L16.0912 27.5151ZM11.025 24.7195L11.7449 24.0254L11.7441 24.0246L11.025 24.7195ZM9.49962 20.1411C9.34705 19.6103 8.79308 19.3037 8.26229 19.4563C7.73149 19.6089 7.42488 20.1628 7.57745 20.6936L9.49962 20.1411ZM9.50638 20.6689C9.6453 20.1344 9.32459 19.5884 8.79006 19.4495C8.25553 19.3106 7.7096 19.6313 7.57068 20.1659L9.50638 20.6689ZM6.53527 24.15C6.39635 24.6845 6.71706 25.2305 7.25159 25.3694C7.78612 25.5083 8.33205 25.1876 8.47097 24.6531L6.53527 24.15ZM8.80488 19.4535C8.27255 19.3064 7.72176 19.6187 7.57466 20.151C7.42756 20.6834 7.73985 21.2342 8.27219 21.3813L8.80488 19.4535ZM12.1353 22.4488C12.6676 22.5959 13.2184 22.2836 13.3655 21.7512C13.5126 21.2189 13.2003 20.6681 12.668 20.521L12.1353 22.4488ZM8.50312 17.4997C8.5013 15.6807 9.02515 13.8999 10.0116 12.3716L8.33127 11.2869C7.13577 13.1391 6.50092 15.2972 6.50312 17.5017L8.50312 17.4997ZM10.0121 12.3708C10.9783 10.871 12.3698 9.69328 14.0087 8.98829L13.2184 7.15106C11.2141 8.01323 9.51238 9.45347 8.33078 11.2877L10.0121 12.3708ZM14.0074 8.98883C15.6223 8.29676 17.4101 8.11438 19.1315 8.4661L19.5318 6.50658C17.4113 6.07331 15.209 6.29797 13.2196 7.15052L14.0074 8.98883ZM19.1283 8.46545C20.8629 8.82569 22.4484 9.70063 23.678 10.976L25.1178 9.58791C23.6091 8.02291 21.6634 6.94928 19.535 6.50723L19.1283 8.46545ZM23.6788 10.9768C24.7333 12.0682 25.504 13.4017 25.9233 14.8603L27.8455 14.3078C27.3358 12.5347 26.399 10.9138 25.1171 9.5871L23.6788 10.9768ZM27.8522 14.8356L28.8876 10.8514L26.9519 10.3484L25.9165 14.3325L27.8522 14.8356ZM27.1507 13.6202L23.2876 12.5527L22.7549 14.4804L26.618 15.5479L27.1507 13.6202ZM26.9198 17.5017C26.9216 19.3207 26.3978 21.1016 25.4113 22.6299L27.0916 23.7145C28.2871 21.8623 28.922 19.7042 28.9198 17.4997L26.9198 17.5017ZM25.4108 22.6306C24.4446 24.1305 23.0531 25.3081 21.4142 26.0131L22.2045 27.8504C24.2088 26.9882 25.9105 25.548 27.0921 23.7137L25.4108 22.6306ZM21.4155 26.0126C19.8006 26.7047 18.0128 26.8871 16.2914 26.5353L15.8911 28.4948C18.0116 28.9281 20.2139 28.7035 22.2033 27.8509L21.4155 26.0126ZM16.2946 26.536C14.5601 26.1757 12.9745 25.3008 11.7449 24.0254L10.3051 25.4135C11.8138 26.9785 13.7595 28.0522 15.8879 28.4942L16.2946 26.536ZM11.7441 24.0246C10.6896 22.9332 9.91887 21.5997 9.49962 20.1411L7.57745 20.6936C8.08708 22.4667 9.02393 24.0876 10.3059 25.4143L11.7441 24.0246ZM7.57068 20.1659L6.53527 24.15L8.47097 24.6531L9.50638 20.6689L7.57068 20.1659ZM8.27219 21.3813L12.1353 22.4488L12.668 20.521L8.80488 19.4535L8.27219 21.3813Z" fill="#0E2DA6"/>
</svg>
