<svg width="20" height="20"  viewBox="0 0 22 23" fill="none" xmlns="http://www.w3.org/2000/svg">
<path d="M7.79175 13.6562C7.79175 15.4963 9.24008 17.0104 11.0001 17.0104C12.7601 17.0104 14.2084 15.4963 14.2084 13.6562" stroke="#70DD1B" stroke-width="1.5" stroke-miterlimit="10" stroke-linecap="round" stroke-linejoin="round"/>
<path d="M8.07578 1.9165L4.75745 5.39525" stroke="#70DD1B" stroke-width="1.5" stroke-miterlimit="10" stroke-linecap="round" stroke-linejoin="round"/>
<path d="M13.9241 1.9165L17.2424 5.39525" stroke="#70DD1B" stroke-width="1.5" stroke-miterlimit="10" stroke-linecap="round" stroke-linejoin="round"/>
<path d="M1.83325 7.52287C1.83325 5.74995 2.74075 5.6062 3.86825 5.6062H18.1316C19.2591 5.6062 20.1666 5.74995 20.1666 7.52287C20.1666 9.58328 19.2591 9.43953 18.1316 9.43953H3.86825C2.74075 9.43953 1.83325 9.58328 1.83325 7.52287Z" stroke="#70DD1B" stroke-width="1.5"/>
<path d="M3.20825 9.5835L4.50075 17.8635C4.79409 19.7227 5.49992 21.0835 8.12158 21.0835H13.6491C16.4999 21.0835 16.9216 19.7802 17.2516 17.9785L18.7916 9.5835" stroke="#70DD1B" stroke-width="1.5" stroke-linecap="round"/>
</svg>
