<svg width="20" height="20" viewBox="0 0 22 24" fill="none" xmlns="http://www.w3.org/2000/svg">
<path d="M14.2176 2.83008H7.78258C5.50008 2.83008 4.99591 4.07008 4.70258 5.59008L3.66675 11.0001H18.3334L17.2976 5.59008C17.0042 4.07008 16.5001 2.83008 14.2176 2.83008Z" stroke="#878787" stroke-width="1.5" stroke-linecap="round" stroke-linejoin="round"/>
<path d="M20.1575 19.82C20.2583 20.99 19.3967 22 18.2967 22H16.5733C15.5833 22 15.4458 21.54 15.2717 20.97L15.0883 20.37C14.8317 19.55 14.6667 19 13.3467 19H8.65333C7.33333 19 7.14084 19.62 6.91167 20.37L6.72834 20.97C6.55417 21.54 6.41667 22 5.42667 22H3.70334C2.60334 22 1.74167 20.99 1.8425 19.82L2.35584 13.73C2.48417 12.23 2.75 11 5.15167 11H16.8483C19.25 11 19.5158 12.23 19.6442 13.73L20.1575 19.82Z" stroke="#878787" stroke-width="1.5" stroke-linecap="round" stroke-linejoin="round"/>
<path d="M3.66667 8H2.75" stroke="#878787" stroke-width="1.5" stroke-linecap="round" stroke-linejoin="round"/>
<path d="M19.2499 8H18.3333" stroke="#878787" stroke-width="1.5" stroke-linecap="round" stroke-linejoin="round"/>
<path d="M11 3V5" stroke="#878787" stroke-width="1.5" stroke-linecap="round" stroke-linejoin="round"/>
<path d="M9.625 5H12.375" stroke="#878787" stroke-width="1.5" stroke-linecap="round" stroke-linejoin="round"/>
<path d="M5.5 15H8.25" stroke="#878787" stroke-width="1.5" stroke-linecap="round" stroke-linejoin="round"/>
<path d="M13.75 15H16.5" stroke="#878787" stroke-width="1.5" stroke-linecap="round" stroke-linejoin="round"/>
</svg>
