<svg width="20" height="20" viewBox="0 0 20 21" fill="none" xmlns="http://www.w3.org/2000/svg">
<path d="M15.3673 16.2982C15.7213 16.5134 16.1826 16.4009 16.3978 16.047C16.613 15.6931 16.5006 15.2317 16.1467 15.0165L15.3673 16.2982ZM3.85697 15.0165C3.50305 15.2317 3.3906 15.6931 3.6058 16.047C3.82101 16.4009 4.28237 16.5134 4.63629 16.2982L3.85697 15.0165ZM16.5046 15.5981C16.4718 15.1852 16.1105 14.877 15.6976 14.9097C15.2847 14.9425 14.9765 15.3038 15.0093 15.7167L16.5046 15.5981ZM16.106 18.9027L16.856 18.898C16.8558 18.8645 16.8533 18.831 16.8487 18.7978L16.106 18.9027ZM15.9095 19.4407L16.4705 19.9385L15.9095 19.4407ZM15.4282 19.6667V20.4167L15.434 20.4167L15.4282 19.6667ZM4.57167 19.6667L4.56583 20.4167H4.57167V19.6667ZM4.09036 19.4407L4.65138 18.943H4.65138L4.09036 19.4407ZM3.89382 18.9027L3.15164 18.7947C3.14666 18.8289 3.14405 18.8634 3.14383 18.898L3.89382 18.9027ZM4.99054 15.7174C5.02368 15.3045 4.71584 14.9429 4.30295 14.9098C3.89007 14.8766 3.52849 15.1845 3.49535 15.5974L4.99054 15.7174ZM15.0086 15.7466C15.0579 16.1578 15.4312 16.4513 15.8425 16.4021C16.2538 16.3528 16.5472 15.9795 16.498 15.5682L15.0086 15.7466ZM16.498 7.21322C16.5472 6.80194 16.2538 6.42862 15.8425 6.37938C15.4312 6.33014 15.0579 6.62363 15.0086 7.0349L16.498 7.21322ZM15.0156 6.9896C14.9414 7.39711 15.2115 7.78764 15.619 7.86186C16.0266 7.93609 16.4171 7.66591 16.4913 7.2584L15.0156 6.9896ZM16.8259 6.12222C16.9354 5.72274 16.7003 5.31014 16.3008 5.20067C15.9013 5.0912 15.4887 5.3263 15.3792 5.72579L16.8259 6.12222ZM16.033 6.42815C15.6486 6.27372 15.2119 6.46011 15.0574 6.84446C14.903 7.22881 15.0894 7.66558 15.4737 7.82L16.033 6.42815ZM17.313 7.75075L17.7601 7.14853C17.7085 7.11025 17.6522 7.07876 17.5927 7.05482L17.313 7.75075ZM17.913 7.83439L18.1869 8.5326L18.1869 8.5326L17.913 7.83439ZM18.3328 7.35075L19.0547 7.55406C19.0577 7.54357 19.0604 7.53301 19.0629 7.52239L18.3328 7.35075ZM18.9651 4.66141L18.2461 4.44781C18.242 4.46169 18.2383 4.47568 18.235 4.48977L18.9651 4.66141ZM18.6052 3.72808L18.9544 3.06427L18.9468 3.06039L18.6052 3.72808ZM15.9417 2.36541L15.5948 3.03037L15.6001 3.0331L15.9417 2.36541ZM15.4306 2.09874L15.7776 1.43381C15.7602 1.42475 15.7425 1.41637 15.7244 1.40869L15.4306 2.09874ZM12.9484 0.562012C12.5416 0.484444 12.1488 0.751409 12.0713 1.15829C11.9937 1.56518 12.2607 1.95791 12.6675 2.03548L12.9484 0.562012ZM13.5577 1.31848C13.5686 0.904412 13.2418 0.559905 12.8277 0.549004C12.4136 0.538103 12.0691 0.864936 12.0582 1.27901L13.5577 1.31848ZM7.95008 1.27901C7.93918 0.864937 7.59467 0.538103 7.1806 0.549004C6.76653 0.559905 6.4397 0.904412 6.4506 1.31848L7.95008 1.27901ZM12.6615 2.03421C13.0677 2.11515 13.4627 1.85145 13.5436 1.44522C13.6245 1.03899 13.3608 0.644061 12.9546 0.563124L12.6615 2.03421ZM9.99824 1L10.0093 0.250082C10.0013 0.249963 9.99319 0.249974 9.98511 0.250115L9.99824 1ZM7.0461 0.570149C6.64007 0.652074 6.37733 1.04764 6.45925 1.45367C6.54118 1.8597 6.93675 2.12244 7.34278 2.04052L7.0461 0.570149ZM3.49475 15.5682C3.44551 15.9795 3.739 16.3528 4.15027 16.4021C4.56155 16.4513 4.93487 16.1578 4.98411 15.7466L3.49475 15.5682ZM4.98411 7.0349C4.93487 6.62363 4.56155 6.33014 4.15027 6.37938C3.739 6.42862 3.44551 6.80194 3.49475 7.21322L4.98411 7.0349ZM3.50156 7.2584C3.57579 7.66591 3.96631 7.93609 4.37382 7.86186C4.78133 7.78764 5.05151 7.39711 4.97728 6.9896L3.50156 7.2584ZM4.61363 5.72579C4.50416 5.3263 4.09156 5.0912 3.69208 5.20067C3.29259 5.31014 3.05749 5.72274 3.16696 6.12222L4.61363 5.72579ZM4.51904 7.81996C4.90339 7.66553 5.08978 7.22877 4.93535 6.84442C4.78092 6.46007 4.34415 6.27368 3.9598 6.42811L4.51904 7.81996ZM2.67975 7.7507L2.40013 7.05478C2.34055 7.07872 2.28429 7.11021 2.23272 7.14849L2.67975 7.7507ZM2.07978 7.83435L2.35365 7.13614L2.35365 7.13614L2.07978 7.83435ZM1.65997 7.3507L0.929514 7.52082C0.932107 7.53195 0.934954 7.54302 0.938052 7.55402L1.65997 7.3507ZM1.0349 4.6667L1.76535 4.49659C1.76195 4.48198 1.75811 4.46748 1.75384 4.45311L1.0349 4.6667ZM1.39482 3.73337L1.0532 3.06564L1.04565 3.06961L1.39482 3.73337ZM4.05826 2.3707L4.39987 3.03841L4.40519 3.03564L4.05826 2.3707ZM4.56935 2.10404L4.27554 1.41398C4.25751 1.42166 4.23979 1.43004 4.22242 1.4391L4.56935 2.10404ZM7.33245 2.04077C7.73933 1.9632 8.0063 1.57047 7.92873 1.16359C7.85116 0.756703 7.45843 0.489738 7.05155 0.567306L7.33245 2.04077ZM16.1467 15.0165C12.3213 12.6905 7.68232 12.6905 3.85697 15.0165L4.63629 16.2982C7.98287 14.2633 12.0208 14.2633 15.3673 16.2982L16.1467 15.0165ZM15.0093 15.7167C15.1124 17.0166 15.2448 18.1678 15.3634 19.0076L16.8487 18.7978C16.7345 17.9896 16.6054 16.8688 16.5046 15.5981L15.0093 15.7167ZM15.356 18.9075C15.3561 18.9191 15.354 18.929 15.3514 18.9361C15.3488 18.9433 15.3467 18.945 15.3485 18.943L16.4705 19.9385C16.7271 19.6493 16.8584 19.274 16.856 18.898L15.356 18.9075ZM15.3485 18.943C15.3531 18.9378 15.3775 18.9171 15.4223 18.9167L15.434 20.4167C15.841 20.4135 16.2116 20.2303 16.4705 19.9385L15.3485 18.943ZM15.4282 18.9167H4.57167V20.4167H15.4282V18.9167ZM4.57751 18.9167C4.6224 18.9171 4.64674 18.9378 4.65138 18.943L3.52935 19.9385C3.78824 20.2303 4.15884 20.4135 4.56583 20.4167L4.57751 18.9167ZM4.65138 18.943C4.65316 18.945 4.65102 18.9433 4.6484 18.9361C4.6458 18.929 4.64373 18.9191 4.6438 18.9075L3.14383 18.898C3.14144 19.274 3.27276 19.6493 3.52935 19.9385L4.65138 18.943ZM4.63599 19.0108C4.75887 18.1668 4.88644 17.0142 4.99054 15.7174L3.49535 15.5974C3.39309 16.8712 3.26871 17.9906 3.15164 18.7947L4.63599 19.0108ZM16.498 15.5682C16.166 12.7955 16.166 9.98596 16.498 7.21322L15.0086 7.0349C14.6625 9.9261 14.6625 12.8554 15.0086 15.7466L16.498 15.5682ZM16.4913 7.2584C16.5117 7.14645 16.5645 6.96271 16.6359 6.73511C16.6987 6.53508 16.7809 6.28643 16.8259 6.12222L15.3792 5.72579C15.3439 5.85491 15.2815 6.0416 15.2048 6.28589C15.1368 6.50263 15.0552 6.77223 15.0156 6.9896L16.4913 7.2584ZM15.4737 7.82L17.0334 8.44667L17.5927 7.05482L16.033 6.42815L15.4737 7.82ZM16.866 8.35296C17.245 8.63428 17.7389 8.7083 18.1869 8.5326L17.6391 7.13618C17.659 7.12841 17.6832 7.12512 17.7077 7.12853C17.732 7.13191 17.7498 7.14089 17.7601 7.14853L16.866 8.35296ZM18.1869 8.5326C18.6274 8.35981 18.934 7.98285 19.0547 7.55406L17.6109 7.14743C17.6083 7.15682 17.6054 7.15894 17.6079 7.15605C17.6106 7.15304 17.62 7.14368 17.6391 7.13618L18.1869 8.5326ZM19.0629 7.52239L19.6952 4.83306L18.235 4.48977L17.6027 7.1791L19.0629 7.52239ZM19.684 4.87501C19.8836 4.20323 19.6206 3.41479 18.9543 3.06432L18.256 4.39184C18.2353 4.38096 18.2379 4.37236 18.2443 4.38888C18.2506 4.40526 18.2523 4.42726 18.2461 4.44781L19.684 4.87501ZM18.9468 3.06039L16.2833 1.69772L15.6001 3.0331L18.2636 4.39577L18.9468 3.06039ZM16.2887 1.70048L15.7776 1.43381L15.0837 2.76368L15.5948 3.03034L16.2887 1.70048ZM15.7244 1.40869C14.8271 1.02663 13.8973 0.742908 12.9484 0.562012L12.6675 2.03548C13.5099 2.19607 14.337 2.44824 15.1368 2.7888L15.7244 1.40869ZM12.0582 1.27901C12.0226 2.63147 11.0452 3.57491 10.0041 3.57491V5.07491C11.9976 5.07491 13.5046 3.33688 13.5577 1.31848L12.0582 1.27901ZM10.0041 3.57491C8.96312 3.57491 7.98568 2.63147 7.95008 1.27901L6.4506 1.31848C6.50373 3.33688 8.01073 5.07491 10.0041 5.07491V3.57491ZM12.9546 0.563124C11.9825 0.369437 10.9974 0.264705 10.0093 0.250082L9.98715 1.74992C10.8839 1.76319 11.7783 1.85824 12.6615 2.03421L12.9546 0.563124ZM9.98511 0.250115C8.99898 0.267383 8.01599 0.374454 7.0461 0.570149L7.34278 2.04052C8.22394 1.86273 9.11643 1.76556 10.0114 1.74989L9.98511 0.250115ZM4.98411 15.7466C5.33026 12.8554 5.33026 9.9261 4.98411 7.0349L3.49475 7.21322C3.82671 9.98596 3.82671 12.7955 3.49475 15.5682L4.98411 15.7466ZM4.97728 6.9896C4.93769 6.77223 4.85611 6.50263 4.78808 6.28589C4.7114 6.0416 4.64901 5.85491 4.61363 5.72579L3.16696 6.12222C3.21196 6.28643 3.29414 6.53508 3.35693 6.73511C3.42837 6.96271 3.48117 7.14645 3.50156 7.2584L4.97728 6.9896ZM3.9598 6.42811L2.40013 7.05478L2.95937 8.44663L4.51904 7.81996L3.9598 6.42811ZM2.23272 7.14849C2.24301 7.14085 2.26082 7.13187 2.2851 7.12849C2.30959 7.12507 2.33383 7.12836 2.35365 7.13614L1.80591 8.53256C2.25387 8.70826 2.74781 8.63423 3.12678 8.35292L2.23272 7.14849ZM2.35365 7.13614C2.37277 7.14364 2.38223 7.153 2.38484 7.15601C2.38735 7.1589 2.38453 7.15678 2.38188 7.14739L0.938052 7.55402C1.05881 7.9828 1.36539 8.35976 1.80591 8.53256L2.35365 7.13614ZM2.39042 7.18059L1.76535 4.49659L0.304447 4.83682L0.929514 7.52082L2.39042 7.18059ZM1.75384 4.45311C1.74773 4.43255 1.74935 4.41055 1.75566 4.39418C1.76204 4.37765 1.76467 4.38625 1.744 4.39713L1.04565 3.06961C0.379418 3.42008 0.116372 4.20853 0.31596 4.8803L1.75384 4.45311ZM1.73643 4.40106L4.39986 3.03839L3.71666 1.70302L1.05322 3.06568L1.73643 4.40106ZM4.40519 3.03564L4.91629 2.76897L4.22242 1.4391L3.71132 1.70577L4.40519 3.03564ZM4.86316 2.79409C5.66301 2.45354 6.49005 2.20136 7.33245 2.04077L7.05155 0.567306C6.10265 0.748202 5.17286 1.03193 4.27554 1.41398L4.86316 2.79409Z" fill="#AE59E2"/>
</svg>
