<svg width="20" height="20" viewBox="0 0 21 21" fill="none" xmlns="http://www.w3.org/2000/svg">
<path d="M7 9.97505C7 10.6488 7.525 11.2 8.16375 11.2H9.47625C10.0362 11.2 10.4912 10.7188 10.4912 10.1325C10.4912 9.4938 10.2112 9.2663 9.8 9.11755L7.7 8.38255C7.28 8.2338 7 8.0063 7 7.36755C7 6.7813 7.455 6.30005 8.015 6.30005H9.3275C9.975 6.3088 10.5 6.8513 10.5 7.52505" stroke="#05C301" stroke-width="1.5" stroke-linecap="round" stroke-linejoin="round"/>
<path d="M8.75 11.2437V11.8912" stroke="#05C301" stroke-width="1.5" stroke-linecap="round" stroke-linejoin="round"/>
<path d="M8.75 5.60864V6.29114" stroke="#05C301" stroke-width="1.5" stroke-linecap="round" stroke-linejoin="round"/>
<path d="M8.74125 15.7325C12.6024 15.7325 15.7325 12.6024 15.7325 8.74125C15.7325 4.88009 12.6024 1.75 8.74125 1.75C4.88009 1.75 1.75 4.88009 1.75 8.74125C1.75 12.6024 4.88009 15.7325 8.74125 15.7325Z" stroke="#05C301" stroke-width="1.5" stroke-linecap="round" stroke-linejoin="round"/>
<path d="M11.3575 17.395C12.145 18.5062 13.4313 19.2325 14.9013 19.2325C17.29 19.2325 19.2325 17.29 19.2325 14.9013C19.2325 13.4488 18.515 12.1625 17.4213 11.375" stroke="#05C301" stroke-width="1.5" stroke-linecap="round" stroke-linejoin="round"/>
</svg>
