<svg width="20" height="20" viewBox="0 0 23 23" fill="none" xmlns="http://www.w3.org/2000/svg">
<path d="M11.5 13.4165H12.4583C13.5125 13.4165 14.375 12.554 14.375 11.4998V1.9165H5.74997C4.31247 1.9165 3.05706 2.71191 2.4054 3.88108" stroke="#FA6B73" stroke-width="1.5" stroke-linecap="round" stroke-linejoin="round"/>
<path d="M1.91663 16.2915C1.91663 17.8823 3.20079 19.1665 4.79163 19.1665H5.74996C5.74996 18.1123 6.61246 17.2498 7.66663 17.2498C8.72079 17.2498 9.58329 18.1123 9.58329 19.1665H13.4166C13.4166 18.1123 14.2791 17.2498 15.3333 17.2498C16.3875 17.2498 17.25 18.1123 17.25 19.1665H18.2083C19.7991 19.1665 21.0833 17.8823 21.0833 16.2915V13.4165H18.2083C17.6812 13.4165 17.25 12.9853 17.25 12.4582V9.58317C17.25 9.05609 17.6812 8.62484 18.2083 8.62484H19.4445L17.8058 5.75943C17.4608 5.16526 16.8283 4.7915 16.1383 4.7915H14.375V11.4998C14.375 12.554 13.5125 13.4165 12.4583 13.4165H11.5" stroke="#FA6B73" stroke-width="1.5" stroke-linecap="round" stroke-linejoin="round"/>
<path d="M7.66667 21.0833C8.72521 21.0833 9.58333 20.2252 9.58333 19.1667C9.58333 18.1081 8.72521 17.25 7.66667 17.25C6.60812 17.25 5.75 18.1081 5.75 19.1667C5.75 20.2252 6.60812 21.0833 7.66667 21.0833Z" stroke="#FA6B73" stroke-width="1.5" stroke-linecap="round" stroke-linejoin="round"/>
<path d="M15.3333 21.0833C16.3918 21.0833 17.25 20.2252 17.25 19.1667C17.25 18.1081 16.3918 17.25 15.3333 17.25C14.2747 17.25 13.4166 18.1081 13.4166 19.1667C13.4166 20.2252 14.2747 21.0833 15.3333 21.0833Z" stroke="#FA6B73" stroke-width="1.5" stroke-linecap="round" stroke-linejoin="round"/>
<path d="M21.0833 11.5V13.4167H18.2083C17.6812 13.4167 17.25 12.9854 17.25 12.4583V9.58333C17.25 9.05625 17.6812 8.625 18.2083 8.625H19.4446L21.0833 11.5Z" stroke="#FA6B73" stroke-width="1.5" stroke-linecap="round" stroke-linejoin="round"/>
<path d="M1.91663 7.6665H7.66663" stroke="#FA6B73" stroke-width="1.5" stroke-linecap="round" stroke-linejoin="round"/>
<path d="M1.91663 10.5415H5.74996" stroke="#FA6B73" stroke-width="1.5" stroke-linecap="round" stroke-linejoin="round"/>
<path d="M1.91663 13.4165H3.83329" stroke="#FA6B73" stroke-width="1.5" stroke-linecap="round" stroke-linejoin="round"/>
</svg>
