<svg width="20" height="20" viewBox="0 0 21 21" fill="none" xmlns="http://www.w3.org/2000/svg">
<path fill-rule="evenodd" clip-rule="evenodd" d="M14.5715 6.43335H1L7.78516 12.3685L14.5715 6.43335Z" stroke="#F7D941" stroke-width="1.5" stroke-linecap="round" stroke-linejoin="round"/>
<path d="M15.8697 8.397C15.4555 8.39686 15.1196 8.73253 15.1195 9.14675C15.1193 9.56096 15.455 9.89686 15.8692 9.89699L15.8697 8.397ZM18.1636 8.46089L17.7519 7.83402L17.7516 7.83419L18.1636 8.46089ZM19.6848 6.63406L20.3759 6.92541L20.3761 6.92492L19.6848 6.63406ZM18.7894 2.19457L18.2636 2.72939L18.2648 2.73059L18.7894 2.19457ZM15.4676 1.01953L15.5401 1.76601L15.4676 1.01953ZM12.4341 2.81182L11.8152 2.38823L11.8138 2.3903L12.4341 2.81182ZM11.128 3.92465C11.028 4.32662 11.2728 4.73353 11.6748 4.83351C12.0768 4.93349 12.4837 4.68868 12.5837 4.28672L11.128 3.92465ZM7.78528 19.2503C7.37106 19.2503 7.03528 19.5861 7.03528 20.0003C7.03528 20.4145 7.37106 20.7503 7.78528 20.7503V19.2503ZM12.8747 20.7503C13.289 20.7503 13.6247 20.4145 13.6247 20.0003C13.6247 19.5861 13.289 19.2503 12.8747 19.2503V20.7503ZM7.03514 19.9999C7.03514 20.4141 7.37092 20.7499 7.78514 20.7499C8.19935 20.7499 8.53514 20.4141 8.53514 19.9999H7.03514ZM8.53514 12.3685C8.53514 11.9543 8.19935 11.6185 7.78514 11.6185C7.37092 11.6185 7.03514 11.9543 7.03514 12.3685H8.53514ZM7.7853 20.7503C8.19951 20.7503 8.5353 20.4145 8.5353 20.0003C8.5353 19.5861 8.19951 19.2503 7.7853 19.2503V20.7503ZM2.69702 19.2503C2.28281 19.2503 1.94702 19.5861 1.94702 20.0003C1.94702 20.4145 2.28281 20.7503 2.69702 20.7503V19.2503ZM15.8692 9.89699C16.831 9.89732 17.7719 9.61594 18.5756 9.0876L17.7516 7.83419C17.1928 8.20155 16.5386 8.39722 15.8697 8.397L15.8692 9.89699ZM18.5754 9.08777C19.3767 8.56143 20.0035 7.80876 20.3759 6.92541L18.9937 6.3427C18.7369 6.95186 18.3046 7.47097 17.7519 7.83402L18.5754 9.08777ZM20.3761 6.92492C21.1364 5.11783 20.7153 3.02988 19.314 1.65854L18.2648 2.73059C19.2262 3.6714 19.515 5.10366 18.9935 6.34319L20.3761 6.92492ZM19.3152 1.65975C18.2782 0.640212 16.8426 0.132444 15.3951 0.273039L15.5401 1.76601C16.5459 1.66833 17.5432 2.02115 18.2636 2.72939L19.3152 1.65975ZM15.3951 0.273039C13.9475 0.413634 12.6365 1.18816 11.8152 2.38823L13.053 3.23542C13.6235 2.40184 14.5343 1.8637 15.5401 1.76601L15.3951 0.273039ZM11.8138 2.3903C11.4965 2.85731 11.2643 3.37676 11.128 3.92465L12.5837 4.28672C12.6772 3.91059 12.8366 3.55397 13.0545 3.23334L11.8138 2.3903ZM7.78528 20.7503H12.8747V19.2503H7.78528V20.7503ZM8.53514 19.9999V12.3685H7.03514V19.9999H8.53514ZM7.7853 19.2503H2.69702V20.7503H7.7853V19.2503Z" fill="#F7D941"/>
</svg>
