<svg width="20" height="20" viewBox="0 0 21 21" fill="none" xmlns="http://www.w3.org/2000/svg">
<path d="M6.33337 13.0001C6.57512 13.6298 6.97126 14.1887 7.48537 14.6254C9.1204 15.9978 11.4998 16.0152 13.1547 14.6668C13.6759 14.2378 14.0812 13.6849 14.3334 13.0588" stroke="black" stroke-width="1.5" stroke-linecap="round" stroke-linejoin="round"/>
<path fill-rule="evenodd" clip-rule="evenodd" d="M19.6667 10.3333C19.6667 15.488 15.488 19.6667 10.3333 19.6667C5.17868 19.6667 1 15.488 1 10.3333C1 5.17868 5.17868 1 10.3333 1C12.8087 1 15.1827 1.98333 16.933 3.73367C18.6833 5.48401 19.6667 7.85798 19.6667 10.3333Z" stroke="black" stroke-width="1.5" stroke-linecap="round" stroke-linejoin="round"/>
<path d="M6.33313 7.66687L7.66626 9L6.33313 10.3331" stroke="black" stroke-width="1.5" stroke-linecap="round" stroke-linejoin="round"/>
<path d="M14.3335 7.66699L13.0004 9.00012L14.3335 10.3333" stroke="black" stroke-width="1.5" stroke-linecap="round" stroke-linejoin="round"/>
</svg>
