<svg width="20" height="20" viewBox="0 0 18 21" fill="none" xmlns="http://www.w3.org/2000/svg">
<path d="M16.8392 7.92799L17.5304 8.21909L16.8392 7.92799ZM16.3003 5.14737L15.7679 5.6756L16.3003 5.14737ZM11.948 6.94L12.698 6.94356V6.94002L11.948 6.94ZM12.683 8.73627L12.1505 9.2645L12.683 8.73627ZM15.2234 9.48533C15.2234 9.07112 14.8876 8.73533 14.4734 8.73533C14.0592 8.73533 13.7234 9.07112 13.7234 9.48533H15.2234ZM14.4734 14.576H13.7233L13.7235 14.5882L14.4734 14.576ZM11.971 19.0206L11.5925 18.3732L11.971 19.0206ZM6.87037 19.0206L7.24889 18.3732L6.87037 19.0206ZM4.36803 14.576L5.11803 14.5882V14.576H4.36803ZM5.11803 9.48533C5.11803 9.07112 4.78225 8.73533 4.36803 8.73533C3.95382 8.73533 3.61803 9.07112 3.61803 9.48533H5.11803ZM4.36508 10.2353C4.77929 10.237 5.11639 9.9025 5.11802 9.48829C5.11965 9.07407 4.78519 8.73697 4.37098 8.73534L4.36508 10.2353ZM1.98096 8.48554L2.51338 7.95731L1.98096 8.48554ZM1.00003 6.09067L1.75003 6.09363V6.09067H1.00003ZM1.00003 2.33333L0.469696 1.803C0.329044 1.94366 0.250026 2.13442 0.250026 2.33333H1.00003ZM2.86369 1.53033C3.15658 1.23744 3.15658 0.762563 2.86369 0.46967C2.5708 0.176777 2.09592 0.176777 1.80303 0.46967L2.86369 1.53033ZM4.36279 8.73535C3.94859 8.73825 3.61516 9.07637 3.61805 9.49057C3.62094 9.90478 3.95907 10.2382 4.37327 10.2353L4.36279 8.73535ZM6.72775 8.47829L6.18987 7.95562L6.72775 8.47829ZM7.6667 6.09067H6.9167C6.9167 6.09609 6.91676 6.10151 6.91687 6.10694L7.6667 6.09067ZM7.6667 2.33333H8.4167C8.4167 2.13442 8.33768 1.94366 8.19703 1.803L7.6667 2.33333ZM6.8637 0.46967C6.5708 0.176777 6.09593 0.176777 5.80304 0.46967C5.51014 0.762563 5.51014 1.23744 5.80303 1.53033L6.8637 0.46967ZM14.4675 10.2353C15.8026 10.2458 17.0121 9.4496 17.5304 8.21909L16.148 7.6369C15.8656 8.3073 15.2067 8.74107 14.4793 8.73536L14.4675 10.2353ZM17.5304 8.21909C18.0486 6.98858 17.7731 5.56697 16.8327 4.61913L15.7679 5.6756C16.2802 6.19199 16.4303 6.9665 16.148 7.6369L17.5304 8.21909ZM16.8327 4.61913C15.8923 3.6713 14.4729 3.38459 13.2384 3.89309L13.8096 5.28004C14.4822 5.00301 15.2555 5.15921 15.7679 5.6756L16.8327 4.61913ZM13.2384 3.89309C12.0038 4.40159 11.1981 5.60479 11.198 6.93998L12.698 6.94002C12.6981 6.2126 13.137 5.55708 13.8096 5.28004L13.2384 3.89309ZM11.198 6.93644C11.1939 7.80814 11.5366 8.64569 12.1505 9.2645L13.2154 8.20804C12.8819 7.87193 12.6958 7.41701 12.698 6.94356L11.198 6.93644ZM12.1505 9.2645C12.7645 9.88332 13.5993 10.2326 14.471 10.2353L14.4757 8.73534C14.0023 8.73385 13.5488 8.54414 13.2154 8.20804L12.1505 9.2645ZM13.7234 9.48533V14.576H15.2234V9.48533H13.7234ZM13.7235 14.5882C13.7487 16.1421 12.9342 17.5888 11.5925 18.3732L12.3495 19.6681C14.1589 18.6104 15.2573 16.6593 15.2233 14.5638L13.7235 14.5882ZM11.5925 18.3732C10.2509 19.1575 8.59054 19.1575 7.24889 18.3732L6.49186 19.6681C8.30118 20.7258 10.5402 20.7258 12.3495 19.6681L11.5925 18.3732ZM7.24889 18.3732C5.90723 17.5888 5.09269 16.1421 5.11793 14.5882L3.61813 14.5638C3.58409 16.6593 4.68255 18.6104 6.49186 19.6681L7.24889 18.3732ZM5.11803 14.576V9.48533H3.61803V14.576H5.11803ZM4.37098 8.73534C3.6731 8.73259 3.0049 8.45273 2.51338 7.95731L1.44854 9.01378C2.22027 9.79161 3.26937 10.231 4.36508 10.2353L4.37098 8.73534ZM2.51338 7.95731C2.02185 7.46189 1.74726 6.7915 1.75002 6.09363L0.250032 6.0877C0.245703 7.1834 0.676821 8.23595 1.44854 9.01378L2.51338 7.95731ZM1.75003 6.09067V2.33333H0.250026V6.09067H1.75003ZM1.53036 2.86366L2.86369 1.53033L1.80303 0.46967L0.469696 1.803L1.53036 2.86366ZM4.37327 10.2353C5.46377 10.2277 6.50565 9.78306 7.26563 9.00096L6.18987 7.95562C5.70979 8.44966 5.05165 8.73054 4.36279 8.73535L4.37327 10.2353ZM7.26563 9.00096C8.0256 8.21887 8.44018 7.16466 8.41652 6.0744L6.91687 6.10694C6.93182 6.79565 6.66994 7.46158 6.18987 7.95562L7.26563 9.00096ZM8.4167 6.09067V2.33333H6.9167V6.09067H8.4167ZM8.19703 1.803L6.8637 0.46967L5.80303 1.53033L7.13637 2.86366L8.19703 1.803Z" fill="#D30707"/>
</svg>
