<svg width="20" height="20" viewBox="0 0 23 23" fill="none" xmlns="http://www.w3.org/2000/svg">
<path d="M11.5 21.0834C16.7927 21.0834 21.0833 16.7928 21.0833 11.5001C21.0833 6.20735 16.7927 1.91675 11.5 1.91675C6.20723 1.91675 1.91663 6.20735 1.91663 11.5001C1.91663 16.7928 6.20723 21.0834 11.5 21.0834Z" stroke="#DB07C6" stroke-width="1.5" stroke-linecap="round" stroke-linejoin="round"/>
<path d="M11.8162 16.7229C11.6437 16.7804 11.3466 16.7804 11.1741 16.7229C9.67912 16.215 6.32495 14.0779 6.32495 10.4554C6.32495 8.85502 7.60912 7.56128 9.19995 7.56128C10.1391 7.56128 10.9729 8.01169 11.4999 8.72085C12.0174 8.02127 12.8608 7.56128 13.7999 7.56128C15.3908 7.56128 16.6749 8.85502 16.6749 10.4554C16.6749 14.0779 13.3208 16.215 11.8162 16.7229Z" stroke="#DB07C6" stroke-width="1.5" stroke-linecap="round" stroke-linejoin="round"/>
</svg>
