<svg width="20" height="20" viewBox="0 0 20 20" fill="none" xmlns="http://www.w3.org/2000/svg">
<path fill-rule="evenodd" clip-rule="evenodd" d="M4.97271 16.833L3.24308 18.5682L1 16.3181L9.05895 8.24179C7.9787 6.00285 8.68904 3.31051 10.7331 1.89634C12.7772 0.482173 15.5463 0.767298 17.2595 2.56834C18.9727 4.36938 19.1198 7.15001 17.6063 9.12188C16.0927 11.0937 13.3691 11.6696 11.1872 10.4792L6.75657 14.9237L8.60731 16.7813L6.76414 18.63L4.97271 16.833Z" stroke="#BCA010" stroke-width="1.5" stroke-linecap="round" stroke-linejoin="round"/>
<path fill-rule="evenodd" clip-rule="evenodd" d="M15.0388 4.5973C15.8254 5.3864 15.8242 6.66376 15.0361 7.45135C14.248 8.23893 12.971 8.23893 12.1828 7.45135C11.3947 6.66376 11.3935 5.3864 12.1801 4.5973C12.9714 3.81229 14.2475 3.81229 15.0388 4.5973Z" stroke="#BCA010" stroke-width="1.5" stroke-linecap="round" stroke-linejoin="round"/>
</svg>
