<svg width="20" height="20" viewBox="0 0 22 24" fill="none" xmlns="http://www.w3.org/2000/svg">
<path d="M19.855 10.44L18.9566 14.62C18.1866 18.23 16.665 19.69 13.805 19.39C13.3466 19.35 12.8516 19.26 12.32 19.12L10.78 18.72C6.95746 17.73 5.77496 15.67 6.67329 11.49L7.57163 7.30001C7.75496 6.45001 7.97496 5.71001 8.24996 5.10001C9.32246 2.68001 11.1466 2.03001 14.2083 2.82001L15.7391 3.21001C19.58 4.19001 20.7533 6.26001 19.855 10.44Z" stroke="#3D98DA" stroke-width="1.5" stroke-linecap="round" stroke-linejoin="round"/>
<path d="M13.8049 19.3899C13.2366 19.8099 12.5216 20.1599 11.6508 20.4699L10.2024 20.9899C6.56328 22.2699 4.64745 21.1999 3.46495 17.2299L2.29161 13.2799C1.11828 9.30985 2.08995 7.20985 5.72911 5.92985L7.17745 5.40985C7.55328 5.27985 7.91078 5.16985 8.24995 5.09985C7.97495 5.70985 7.75495 6.44985 7.57161 7.29985L6.67328 11.4899C5.77495 15.6699 6.95745 17.7299 10.7799 18.7199L12.3199 19.1199C12.8516 19.2599 13.3466 19.3499 13.8049 19.3899Z" stroke="#3D98DA" stroke-width="1.5" stroke-linecap="round" stroke-linejoin="round"/>
<path d="M11.5868 8.53003L16.0326 9.76003" stroke="#3D98DA" stroke-width="1.5" stroke-linecap="round" stroke-linejoin="round"/>
<path d="M10.6884 12.4001L13.3467 13.1401" stroke="#3D98DA" stroke-width="1.5" stroke-linecap="round" stroke-linejoin="round"/>
</svg>
