<svg width="20" height="20" viewBox="0 0 23 23" fill="none" xmlns="http://www.w3.org/2000/svg">
<path d="M17.2499 6.86151C17.1924 6.85192 17.1253 6.85192 17.0678 6.86151C15.7453 6.81359 14.6912 5.73067 14.6912 4.38901C14.6912 3.01859 15.7932 1.9165 17.1637 1.9165C18.5341 1.9165 19.6362 3.02817 19.6362 4.38901C19.6266 5.73067 18.5724 6.81359 17.2499 6.86151Z" stroke="#EEA4CE" stroke-width="1.5" stroke-linecap="round" stroke-linejoin="round"/>
<path d="M16.2629 13.8383C17.5758 14.0587 19.0229 13.8287 20.0387 13.1483C21.39 12.2475 21.39 10.7717 20.0387 9.87083C19.0133 9.19041 17.547 8.9604 16.2341 9.1904" stroke="#EEA4CE" stroke-width="1.5" stroke-linecap="round" stroke-linejoin="round"/>
<path d="M5.72121 6.86151C5.77871 6.85192 5.84579 6.85192 5.90329 6.86151C7.22579 6.81359 8.27996 5.73067 8.27996 4.38901C8.27996 3.01859 7.17788 1.9165 5.80746 1.9165C4.43705 1.9165 3.33496 3.02817 3.33496 4.38901C3.34454 5.73067 4.39871 6.81359 5.72121 6.86151Z" stroke="#EEA4CE" stroke-width="1.5" stroke-linecap="round" stroke-linejoin="round"/>
<path d="M6.70821 13.8383C5.3953 14.0587 3.94822 13.8287 2.93238 13.1483C1.58113 12.2475 1.58113 10.7717 2.93238 9.87083C3.9578 9.19041 5.42405 8.9604 6.73696 9.1904" stroke="#EEA4CE" stroke-width="1.5" stroke-linecap="round" stroke-linejoin="round"/>
<path d="M11.4999 14.0204C11.4424 14.0109 11.3753 14.0109 11.3178 14.0204C9.99533 13.9725 8.94116 12.8896 8.94116 11.5479C8.94116 10.1775 10.0432 9.07544 11.4137 9.07544C12.7841 9.07544 13.8862 10.1871 13.8862 11.5479C13.8766 12.8896 12.8224 13.9821 11.4999 14.0204Z" stroke="#EEA4CE" stroke-width="1.5" stroke-linecap="round" stroke-linejoin="round"/>
<path d="M8.71119 17.0392C7.35994 17.9401 7.35994 19.4159 8.71119 20.3167C10.2445 21.3421 12.7554 21.3421 14.2887 20.3167C15.6399 19.4159 15.6399 17.9401 14.2887 17.0392C12.7649 16.0234 10.2445 16.0234 8.71119 17.0392Z" stroke="#EEA4CE" stroke-width="1.5" stroke-linecap="round" stroke-linejoin="round"/>
</svg>
