<svg width="20" height="20" viewBox="0 0 16 21" fill="none" xmlns="http://www.w3.org/2000/svg">
<path fill-rule="evenodd" clip-rule="evenodd" d="M9.43699 14.1189H6.31299C5.39936 14.1743 4.7017 14.9567 4.75099 15.8706V16.8015H11.0004V15.8706C11.0496 14.9562 10.3512 14.1735 9.43699 14.1189Z" stroke="#07B2D8" stroke-width="1.5" stroke-linecap="round" stroke-linejoin="round"/>
<path d="M4.74963 8.9895C4.33542 8.9895 3.99963 9.32529 3.99963 9.7395C3.99963 10.1537 4.33542 10.4895 4.74963 10.4895V8.9895ZM11.0004 10.4895C11.4146 10.4895 11.7504 10.1537 11.7504 9.7395C11.7504 9.32529 11.4146 8.9895 11.0004 8.9895V10.4895ZM11.7504 16.8015C11.7504 16.3873 11.4146 16.0515 11.0004 16.0515C10.5862 16.0515 10.2504 16.3873 10.2504 16.8015H11.7504ZM10.2504 20.25C10.2504 20.6642 10.5862 21 11.0004 21C11.4146 21 11.7504 20.6642 11.7504 20.25H10.2504ZM3.99963 20.25C3.99963 20.6642 4.33542 21 4.74963 21C5.16384 21 5.49963 20.6642 5.49963 20.25H3.99963ZM5.49963 16.8015C5.49963 16.3873 5.16384 16.0515 4.74963 16.0515C4.33542 16.0515 3.99963 16.3873 3.99963 16.8015H5.49963ZM10.8746 4.9765C10.8746 5.39071 11.2104 5.7265 11.6246 5.7265C12.0388 5.7265 12.3746 5.39071 12.3746 4.9765H10.8746ZM11.6246 4.85L10.8746 4.84125V4.85H11.6246ZM7.87501 1L7.88606 0.250082C7.87869 0.249973 7.87132 0.249973 7.86395 0.250082L7.87501 1ZM4.12538 4.85H4.87543L4.87533 4.84125L4.12538 4.85ZM3.37538 4.97787C3.37538 5.39209 3.71117 5.72787 4.12538 5.72787C4.5396 5.72787 4.87538 5.39209 4.87538 4.97787H3.37538ZM11.4412 5.70475C11.8426 5.80681 12.2508 5.56412 12.3529 5.16268C12.4549 4.76124 12.2122 4.35306 11.8108 4.251L11.4412 5.70475ZM10.8216 4.85L10.8714 4.10165C10.8548 4.10055 10.8382 4.1 10.8216 4.1V4.85ZM4.92838 4.85V4.1C4.91169 4.1 4.895 4.10056 4.87835 4.10167L4.92838 4.85ZM3.9405 4.25102C3.53906 4.35313 3.29642 4.76133 3.39853 5.16276C3.50064 5.56419 3.90883 5.80684 4.31027 5.70473L3.9405 4.25102ZM11.7972 4.24768C11.3939 4.15312 10.9904 4.40339 10.8958 4.80666C10.8013 5.20994 11.0515 5.61351 11.4548 5.70807L11.7972 4.24768ZM14.7198 8.33425L15.4638 8.23953C15.463 8.234 15.4623 8.22848 15.4615 8.22297L14.7198 8.33425ZM14.75 8.81688L14 8.8158V8.81688H14.75ZM14.75 16.2735L15.4996 16.2975C15.4999 16.2895 15.5 16.2815 15.5 16.2735H14.75ZM10.5191 20.25L10.5416 19.5003C10.5341 19.5001 10.5266 19.5 10.5191 19.5V20.25ZM5.23088 20.25V19.5C5.22339 19.5 5.2159 19.5001 5.20842 19.5003L5.23088 20.25ZM1.00001 16.2735H0.250006C0.250006 16.2815 0.250134 16.2895 0.25039 16.2975L1.00001 16.2735ZM1.00001 8.81688H1.75001L1.75 8.81553L1.00001 8.81688ZM1.03026 8.33288L0.288558 8.22159C0.287731 8.22711 0.286965 8.23263 0.286262 8.23815L1.03026 8.33288ZM4.29522 5.7067C4.69849 5.61214 4.94876 5.20857 4.8542 4.80529C4.75964 4.40201 4.35607 4.15175 3.95279 4.2463L4.29522 5.7067ZM4.74963 10.4895H11.0004V8.9895H4.74963V10.4895ZM10.2504 16.8015V20.25H11.7504V16.8015H10.2504ZM5.49963 20.25V16.8015H3.99963V20.25H5.49963ZM12.3746 4.9765V4.85H10.8746V4.9765H12.3746ZM12.3746 4.85875C12.4039 2.34818 10.3965 0.2871 7.88606 0.250082L7.86395 1.74992C9.54788 1.77475 10.8943 3.15725 10.8747 4.84125L12.3746 4.85875ZM7.86395 0.250082C5.35348 0.2871 3.34613 2.34818 3.37543 4.85875L4.87533 4.84125C4.85568 3.15725 6.20213 1.77475 7.88606 1.74992L7.86395 0.250082ZM3.37538 4.85V4.97787H4.87538V4.85H3.37538ZM11.8108 4.251C11.5029 4.17271 11.1884 4.12271 10.8714 4.10165L10.7719 5.59835C10.9978 5.61336 11.2218 5.64897 11.4412 5.70475L11.8108 4.251ZM10.8216 4.1H4.92838V5.6H10.8216V4.1ZM4.87835 4.10167C4.56184 4.12283 4.24792 4.17282 3.9405 4.25102L4.31027 5.70473C4.52928 5.64902 4.75293 5.61341 4.97841 5.59833L4.87835 4.10167ZM11.4548 5.70807C12.7769 6.01807 13.7766 7.10259 13.9781 8.44553L15.4615 8.22297C15.1689 6.27277 13.7172 4.69786 11.7972 4.24768L11.4548 5.70807ZM13.9758 8.42897C13.9921 8.55726 14.0002 8.68647 14 8.8158L15.5 8.81796C15.5003 8.62457 15.4882 8.43137 15.4638 8.23953L13.9758 8.42897ZM14 8.81688V16.2735H15.5V8.81688H14ZM14.0004 16.2495C13.9411 18.1015 12.3937 19.5558 10.5416 19.5003L10.4967 20.9997C13.1756 21.0799 15.4138 18.9763 15.4996 16.2975L14.0004 16.2495ZM10.5191 19.5H5.23088V21H10.5191V19.5ZM5.20842 19.5003C3.35633 19.5558 1.80892 18.1015 1.74962 16.2495L0.25039 16.2975C0.336165 18.9763 2.57441 21.0799 5.25335 20.9997L5.20842 19.5003ZM1.75001 16.2735V8.81688H0.250006V16.2735H1.75001ZM1.75 8.81553C1.74977 8.68583 1.75787 8.55626 1.77425 8.4276L0.286262 8.23815C0.261769 8.43053 0.249659 8.62429 0.250007 8.81822L1.75 8.81553ZM1.77195 8.44416C1.97344 7.10122 2.9731 6.0167 4.29522 5.7067L3.95279 4.2463C2.03284 4.69648 0.581157 6.2714 0.288558 8.22159L1.77195 8.44416Z" fill="#07B2D8"/>
</svg>
