<svg width="20" height="20" viewBox="0 0 23 23" fill="none" xmlns="http://www.w3.org/2000/svg">
<path d="M9.63121 2.42465L3.86204 6.1909C2.01246 7.3984 2.01246 10.1009 3.86204 11.3084L9.63121 15.0746C10.6662 15.7551 12.372 15.7551 13.407 15.0746L19.1475 11.3084C20.9875 10.1009 20.9875 7.40798 19.1475 6.20048L13.407 2.43423C12.372 1.74423 10.6662 1.74423 9.63121 2.42465Z" stroke="#0E5DC1" stroke-width="1.5" stroke-linecap="round" stroke-linejoin="round"/>
<path d="M5.39545 12.5349L5.38586 17.0295C5.38586 18.2466 6.32503 19.5499 7.47503 19.9332L10.5321 20.9491C11.0592 21.1216 11.9313 21.1216 12.4679 20.9491L15.525 19.9332C16.675 19.5499 17.6142 18.2466 17.6142 17.0295V12.5828" stroke="#0E5DC1" stroke-width="1.5" stroke-linecap="round" stroke-linejoin="round"/>
<path d="M20.5083 14.375V8.625" stroke="#0E5DC1" stroke-width="1.5" stroke-linecap="round" stroke-linejoin="round"/>
</svg>
